<?xml version="1.0" encoding="UTF-8" standalone="no"?>
<!DOCTYPE svg PUBLIC "-//W3C//DTD SVG 1.1//EN"
 "http://www.w3.org/Graphics/SVG/1.1/DTD/svg11.dtd">
<!-- Generated by graphviz version 7.1.0 (0)
 -->
<!-- Pages: 1 -->
<svg width="1884pt" height="1052pt"
 viewBox="0.00 0.00 1884.00 1052.00" xmlns="http://www.w3.org/2000/svg" xmlns:xlink="http://www.w3.org/1999/xlink">
<g id="graph0" class="graph" transform="scale(1 1) rotate(0) translate(4 1048)">
<polygon fill="white" stroke="none" points="-4,4 -4,-1048 1880,-1048 1880,4 -4,4"/>
<!-- gv -->
<g id="node1" class="node">
<title>gv</title>
<ellipse fill="none" stroke="red" cx="173" cy="-882" rx="27" ry="18"/>
<text text-anchor="middle" x="173" y="-878.3" font-family="Times,serif" font-size="14.00">gv</text>
</g>
<!-- lq -->
<g id="node2" class="node">
<title>lq</title>
<ellipse fill="none" stroke="red" cx="228" cy="-810" rx="27" ry="18"/>
<text text-anchor="middle" x="228" y="-806.3" font-family="Times,serif" font-size="14.00">lq</text>
</g>
<!-- gv&#45;&gt;lq -->
<g id="edge1" class="edge">
<title>gv&#45;&gt;lq</title>
<path fill="none" stroke="black" d="M185.21,-865.46C192.11,-856.67 200.91,-845.48 208.73,-835.53"/>
<polygon fill="black" stroke="black" points="211.47,-837.71 214.89,-827.68 205.96,-833.38 211.47,-837.71"/>
</g>
<!-- pm -->
<g id="node3" class="node">
<title>pm</title>
<ellipse fill="none" stroke="green" cx="228" cy="-738" rx="27" ry="18"/>
<text text-anchor="middle" x="228" y="-734.3" font-family="Times,serif" font-size="14.00">pm</text>
</g>
<!-- gv&#45;&gt;pm -->
<g id="edge2" class="edge">
<title>gv&#45;&gt;pm</title>
<path fill="none" stroke="black" d="M174.7,-863.67C176.95,-845.29 181.89,-815.69 192,-792 196.25,-782.04 202.48,-771.99 208.56,-763.36"/>
<polygon fill="black" stroke="black" points="211.23,-765.64 214.35,-755.52 205.6,-761.48 211.23,-765.64"/>
</g>
<!-- lq&#45;&gt;pm -->
<g id="edge84" class="edge">
<title>lq&#45;&gt;pm</title>
<path fill="none" stroke="black" d="M228,-791.7C228,-784.41 228,-775.73 228,-767.54"/>
<polygon fill="black" stroke="black" points="231.5,-767.62 228,-757.62 224.5,-767.62 231.5,-767.62"/>
</g>
<!-- zc -->
<g id="node19" class="node">
<title>zc</title>
<ellipse fill="none" stroke="red" cx="207" cy="-378" rx="27" ry="18"/>
<text text-anchor="middle" x="207" y="-374.3" font-family="Times,serif" font-size="14.00">zc</text>
</g>
<!-- pm&#45;&gt;zc -->
<g id="edge91" class="edge">
<title>pm&#45;&gt;zc</title>
<path fill="none" stroke="black" d="M220.49,-720.34C209.42,-694.2 190,-641.7 190,-595 190,-595 190,-595 190,-521 190,-481.24 196.65,-435.67 201.63,-407.1"/>
<polygon fill="black" stroke="black" points="205.04,-407.92 203.37,-397.46 198.15,-406.68 205.04,-407.92"/>
</g>
<!-- sk -->
<g id="node22" class="node">
<title>sk</title>
<ellipse fill="none" stroke="green" cx="921" cy="-666" rx="27" ry="18"/>
<text text-anchor="middle" x="921" y="-662.3" font-family="Times,serif" font-size="14.00">sk</text>
</g>
<!-- pm&#45;&gt;sk -->
<g id="edge90" class="edge">
<title>pm&#45;&gt;sk</title>
<path fill="none" stroke="black" d="M254.74,-734.3C361.61,-723.5 758.28,-683.44 883.12,-670.83"/>
<polygon fill="black" stroke="black" points="883.23,-674.33 892.83,-669.85 882.53,-667.37 883.23,-674.33"/>
</g>
<!-- mb -->
<g id="node40" class="node">
<title>mb</title>
<ellipse fill="none" stroke="red" cx="321" cy="-594" rx="27" ry="18"/>
<text text-anchor="middle" x="321" y="-590.3" font-family="Times,serif" font-size="14.00">mb</text>
</g>
<!-- pm&#45;&gt;mb -->
<g id="edge94" class="edge">
<title>pm&#45;&gt;mb</title>
<path fill="none" stroke="black" d="M244.04,-723.37C255.16,-713.31 269.75,-698.86 280,-684 293.2,-664.86 303.99,-640.8 311.18,-622.52"/>
<polygon fill="black" stroke="black" points="314.37,-623.99 314.65,-613.4 307.82,-621.5 314.37,-623.99"/>
</g>
<!-- xg -->
<g id="node43" class="node">
<title>xg</title>
<ellipse fill="none" stroke="red" cx="359" cy="-666" rx="27" ry="18"/>
<text text-anchor="middle" x="359" y="-662.3" font-family="Times,serif" font-size="14.00">xg</text>
</g>
<!-- pm&#45;&gt;xg -->
<g id="edge95" class="edge">
<title>pm&#45;&gt;xg</title>
<path fill="none" stroke="black" d="M246.38,-724.32C267.17,-712.26 301.04,-694.12 326.3,-681.49"/>
<polygon fill="black" stroke="black" points="327.76,-684.67 335.18,-677.11 324.66,-678.39 327.76,-684.67"/>
</g>
<!-- tb -->
<g id="node50" class="node">
<title>tb</title>
<ellipse fill="none" stroke="red" cx="188" cy="-306" rx="27" ry="18"/>
<text text-anchor="middle" x="188" y="-302.3" font-family="Times,serif" font-size="14.00">tb</text>
</g>
<!-- pm&#45;&gt;tb -->
<g id="edge92" class="edge">
<title>pm&#45;&gt;tb</title>
<path fill="none" stroke="black" d="M213.7,-722.23C191.69,-697.85 152,-646.73 152,-595 152,-595 152,-595 152,-449 152,-408.09 166.21,-362.54 176.78,-334.32"/>
<polygon fill="black" stroke="black" points="179.99,-335.7 180.34,-325.11 173.47,-333.17 179.99,-335.7"/>
</g>
<!-- gd -->
<g id="node53" class="node">
<title>gd</title>
<ellipse fill="none" stroke="red" cx="131" cy="-162" rx="27" ry="18"/>
<text text-anchor="middle" x="131" y="-158.3" font-family="Times,serif" font-size="14.00">gd</text>
</g>
<!-- pm&#45;&gt;gd -->
<g id="edge93" class="edge">
<title>pm&#45;&gt;gd</title>
<path fill="none" stroke="black" d="M208.66,-725.19C176.14,-703.67 114,-654.75 114,-595 114,-595 114,-595 114,-305 114,-265.24 120.65,-219.67 125.63,-191.1"/>
<polygon fill="black" stroke="black" points="129.04,-191.92 127.37,-181.46 122.15,-190.68 129.04,-191.92"/>
</g>
<!-- rv -->
<g id="node4" class="node">
<title>rv</title>
<ellipse fill="none" stroke="red" cx="564" cy="-234" rx="27" ry="18"/>
<text text-anchor="middle" x="564" y="-230.3" font-family="Times,serif" font-size="14.00">rv</text>
</g>
<!-- jd -->
<g id="node5" class="node">
<title>jd</title>
<ellipse fill="none" stroke="green" cx="705" cy="-882" rx="27" ry="18"/>
<text text-anchor="middle" x="705" y="-878.3" font-family="Times,serif" font-size="14.00">jd</text>
</g>
<!-- rv&#45;&gt;jd -->
<g id="edge3" class="edge">
<title>rv&#45;&gt;jd</title>
<path fill="none" stroke="black" d="M544.75,-247.07C512.72,-268.8 452,-317.81 452,-377 452,-739 452,-739 452,-739 452,-783.13 461.69,-800.25 496,-828 545.3,-867.86 620.84,-878.18 666.33,-880.6"/>
<polygon fill="black" stroke="black" points="666.12,-884.09 676.25,-881.01 666.41,-877.1 666.12,-884.09"/>
</g>
<!-- nh -->
<g id="node6" class="node">
<title>nh</title>
<ellipse fill="none" stroke="red" cx="811" cy="-162" rx="27" ry="18"/>
<text text-anchor="middle" x="811" y="-158.3" font-family="Times,serif" font-size="14.00">nh</text>
</g>
<!-- rv&#45;&gt;nh -->
<g id="edge4" class="edge">
<title>rv&#45;&gt;nh</title>
<path fill="none" stroke="black" d="M588.59,-226.03C632.6,-213.56 724.99,-187.37 775.75,-172.99"/>
<polygon fill="black" stroke="black" points="776.39,-176.45 785.06,-170.35 774.48,-169.71 776.39,-176.45"/>
</g>
<!-- gh -->
<g id="node11" class="node">
<title>gh</title>
<ellipse fill="none" stroke="red" cx="705" cy="-954" rx="27" ry="18"/>
<text text-anchor="middle" x="705" y="-950.3" font-family="Times,serif" font-size="14.00">gh</text>
</g>
<!-- jd&#45;&gt;gh -->
<g id="edge25" class="edge">
<title>jd&#45;&gt;gh</title>
<path fill="none" stroke="black" d="M710.86,-899.79C711.66,-907.25 711.92,-916.24 711.64,-924.69"/>
<polygon fill="black" stroke="black" points="708.16,-924.33 710.98,-934.54 715.14,-924.8 708.16,-924.33"/>
</g>
<!-- vd -->
<g id="node12" class="node">
<title>vd</title>
<ellipse fill="none" stroke="red" cx="621" cy="-810" rx="27" ry="18"/>
<text text-anchor="middle" x="621" y="-806.3" font-family="Times,serif" font-size="14.00">vd</text>
</g>
<!-- jd&#45;&gt;vd -->
<g id="edge26" class="edge">
<title>jd&#45;&gt;vd</title>
<path fill="none" stroke="black" d="M688.8,-867.5C676.68,-857.4 659.87,-843.39 646.03,-831.86"/>
<polygon fill="black" stroke="black" points="648.52,-829.38 638.6,-825.66 644.04,-834.75 648.52,-829.38"/>
</g>
<!-- ts -->
<g id="node26" class="node">
<title>ts</title>
<ellipse fill="none" stroke="red" cx="621" cy="-522" rx="27" ry="18"/>
<text text-anchor="middle" x="621" y="-518.3" font-family="Times,serif" font-size="14.00">ts</text>
</g>
<!-- jd&#45;&gt;ts -->
<g id="edge24" class="edge">
<title>jd&#45;&gt;ts</title>
<path fill="none" stroke="black" d="M678.65,-877.28C647.96,-871.66 597.46,-858.25 566,-828 535,-798.19 528,-782.01 528,-739 528,-739 528,-739 528,-665 528,-615.27 568.4,-569.41 595.95,-543.92"/>
<polygon fill="black" stroke="black" points="598.13,-546.66 603.25,-537.39 593.46,-541.45 598.13,-546.66"/>
</g>
<!-- dc -->
<g id="node27" class="node">
<title>dc</title>
<ellipse fill="none" stroke="red" cx="640" cy="-738" rx="27" ry="18"/>
<text text-anchor="middle" x="640" y="-734.3" font-family="Times,serif" font-size="14.00">dc</text>
</g>
<!-- jd&#45;&gt;dc -->
<g id="edge27" class="edge">
<title>jd&#45;&gt;dc</title>
<path fill="none" stroke="black" d="M697.42,-864.43C686.31,-840.17 665.5,-794.71 652.22,-765.7"/>
<polygon fill="black" stroke="black" points="655.51,-764.47 648.17,-756.84 649.14,-767.39 655.51,-764.47"/>
</g>
<!-- xc -->
<g id="node28" class="node">
<title>xc</title>
<ellipse fill="none" stroke="green" cx="949" cy="-810" rx="27" ry="18"/>
<text text-anchor="middle" x="949" y="-806.3" font-family="Times,serif" font-size="14.00">xc</text>
</g>
<!-- jd&#45;&gt;xc -->
<g id="edge28" class="edge">
<title>jd&#45;&gt;xc</title>
<path fill="none" stroke="black" d="M729.29,-874.03C772.57,-861.62 863.19,-835.62 913.47,-821.19"/>
<polygon fill="black" stroke="black" points="914.35,-824.58 922.99,-818.46 912.42,-817.85 914.35,-824.58"/>
</g>
<!-- nh&#45;&gt;jd -->
<g id="edge6" class="edge">
<title>nh&#45;&gt;jd</title>
<path fill="none" stroke="black" d="M814.36,-179.97C819.31,-206.52 828,-259.56 828,-305 828,-739 828,-739 828,-739 828,-795.49 771.69,-840.55 735.27,-863.78"/>
<polygon fill="black" stroke="black" points="733.55,-860.72 726.88,-868.95 737.23,-866.68 733.55,-860.72"/>
</g>
<!-- rs -->
<g id="node7" class="node">
<title>rs</title>
<ellipse fill="none" stroke="red" cx="839" cy="-90" rx="27" ry="18"/>
<text text-anchor="middle" x="839" y="-86.3" font-family="Times,serif" font-size="14.00">rs</text>
</g>
<!-- nh&#45;&gt;rs -->
<g id="edge5" class="edge">
<title>nh&#45;&gt;rs</title>
<path fill="none" stroke="black" d="M817.64,-144.41C820.77,-136.57 824.6,-126.99 828.15,-118.13"/>
<polygon fill="black" stroke="black" points="831.39,-119.46 831.85,-108.88 824.89,-116.86 831.39,-119.46"/>
</g>
<!-- rs&#45;&gt;jd -->
<g id="edge66" class="edge">
<title>rs&#45;&gt;jd</title>
<path fill="none" stroke="black" d="M844.33,-107.85C852.2,-134.25 866,-187.08 866,-233 866,-739 866,-739 866,-739 866,-806.08 786.42,-849.03 739.16,-868.62"/>
<polygon fill="black" stroke="black" points="738.15,-865.25 730.16,-872.21 740.75,-871.75 738.15,-865.25"/>
</g>
<!-- vt -->
<g id="node8" class="node">
<title>vt</title>
<ellipse fill="none" stroke="green" cx="1069" cy="-666" rx="27" ry="18"/>
<text text-anchor="middle" x="1069" y="-662.3" font-family="Times,serif" font-size="14.00">vt</text>
</g>
<!-- tj -->
<g id="node9" class="node">
<title>tj</title>
<ellipse fill="none" stroke="green" cx="995" cy="-594" rx="27" ry="18"/>
<text text-anchor="middle" x="995" y="-590.3" font-family="Times,serif" font-size="14.00">tj</text>
</g>
<!-- vt&#45;&gt;tj -->
<g id="edge7" class="edge">
<title>vt&#45;&gt;tj</title>
<path fill="none" stroke="black" d="M1054.02,-650.83C1043.76,-641.13 1029.94,-628.06 1018.26,-617"/>
<polygon fill="black" stroke="black" points="1020.98,-614.75 1011.31,-610.42 1016.17,-619.84 1020.98,-614.75"/>
</g>
<!-- rx -->
<g id="node55" class="node">
<title>rx</title>
<ellipse fill="none" stroke="black" cx="995" cy="-522" rx="27" ry="18"/>
<text text-anchor="middle" x="995" y="-518.3" font-family="Times,serif" font-size="14.00">rx</text>
</g>
<!-- tj&#45;&gt;rx -->
<g id="edge75" class="edge">
<title>tj&#45;&gt;rx</title>
<path fill="none" stroke="black" d="M995,-575.7C995,-568.41 995,-559.73 995,-551.54"/>
<polygon fill="black" stroke="black" points="998.5,-551.62 995,-541.62 991.5,-551.62 998.5,-551.62"/>
</g>
<!-- zv -->
<g id="node10" class="node">
<title>zv</title>
<ellipse fill="none" stroke="red" cx="38" cy="-18" rx="27" ry="18"/>
<text text-anchor="middle" x="38" y="-14.3" font-family="Times,serif" font-size="14.00">zv</text>
</g>
<!-- zv&#45;&gt;gv -->
<g id="edge9" class="edge">
<title>zv&#45;&gt;gv</title>
<path fill="none" stroke="black" d="M30.49,-35.66C19.42,-61.8 0,-114.3 0,-161 0,-739 0,-739 0,-739 0,-809.62 87.2,-851.54 137.79,-869.92"/>
<polygon fill="black" stroke="black" points="136.56,-873.19 147.15,-873.19 138.86,-866.59 136.56,-873.19"/>
</g>
<!-- zv&#45;&gt;pm -->
<g id="edge8" class="edge">
<title>zv&#45;&gt;pm</title>
<path fill="none" stroke="black" d="M38,-36.49C38,-63.29 38,-116.13 38,-161 38,-595 38,-595 38,-595 38,-640.59 54.35,-654.37 89,-684 118.33,-709.08 160.77,-722.93 191.03,-730.13"/>
<polygon fill="black" stroke="black" points="189.98,-733.48 200.5,-732.24 191.5,-726.65 189.98,-733.48"/>
</g>
<!-- gh&#45;&gt;jd -->
<g id="edge10" class="edge">
<title>gh&#45;&gt;jd</title>
<path fill="none" stroke="black" d="M699.12,-936.05C698.33,-928.57 698.08,-919.58 698.37,-911.14"/>
<polygon fill="black" stroke="black" points="701.85,-911.51 699.04,-901.3 694.87,-911.04 701.85,-911.51"/>
</g>
<!-- gh&#45;&gt;vd -->
<g id="edge11" class="edge">
<title>gh&#45;&gt;vd</title>
<path fill="none" stroke="black" d="M693.86,-937.51C686.52,-927.08 676.85,-912.93 669,-900 656.49,-879.4 643.6,-855.3 634.32,-837.38"/>
<polygon fill="black" stroke="black" points="637.55,-836 629.88,-828.7 631.33,-839.2 637.55,-836"/>
</g>
<!-- vd&#45;&gt;dc -->
<g id="edge47" class="edge">
<title>vd&#45;&gt;dc</title>
<path fill="none" stroke="black" d="M625.6,-792.05C627.65,-784.49 630.13,-775.37 632.44,-766.85"/>
<polygon fill="black" stroke="black" points="635.8,-767.82 635.05,-757.25 629.05,-765.98 635.8,-767.82"/>
</g>
<!-- hh -->
<g id="node13" class="node">
<title>hh</title>
<ellipse fill="none" stroke="red" cx="1802" cy="-162" rx="27" ry="18"/>
<text text-anchor="middle" x="1802" y="-158.3" font-family="Times,serif" font-size="14.00">hh</text>
</g>
<!-- bf -->
<g id="node14" class="node">
<title>bf</title>
<ellipse fill="none" stroke="red" cx="1839" cy="-90" rx="27" ry="18"/>
<text text-anchor="middle" x="1839" y="-86.3" font-family="Times,serif" font-size="14.00">bf</text>
</g>
<!-- hh&#45;&gt;bf -->
<g id="edge12" class="edge">
<title>hh&#45;&gt;bf</title>
<path fill="none" stroke="black" d="M1810.58,-144.76C1814.92,-136.55 1820.3,-126.37 1825.21,-117.09"/>
<polygon fill="black" stroke="black" points="1828.18,-118.96 1829.76,-108.49 1821.99,-115.69 1828.18,-118.96"/>
</g>
<!-- qm -->
<g id="node15" class="node">
<title>qm</title>
<ellipse fill="none" stroke="green" cx="1648" cy="-810" rx="27" ry="18"/>
<text text-anchor="middle" x="1648" y="-806.3" font-family="Times,serif" font-size="14.00">qm</text>
</g>
<!-- hh&#45;&gt;qm -->
<g id="edge13" class="edge">
<title>hh&#45;&gt;qm</title>
<path fill="none" stroke="black" d="M1774.67,-163.38C1700.33,-165.98 1500,-184.2 1500,-305 1500,-667 1500,-667 1500,-667 1500,-712.15 1516.88,-724.26 1549,-756 1567.34,-774.12 1593.14,-787.66 1613.81,-796.52"/>
<polygon fill="black" stroke="black" points="1612.4,-799.73 1622.98,-800.27 1615.05,-793.25 1612.4,-799.73"/>
</g>
<!-- bf&#45;&gt;qm -->
<g id="edge34" class="edge">
<title>bf&#45;&gt;qm</title>
<path fill="none" stroke="black" d="M1846.31,-107.68C1857.09,-133.85 1876,-186.38 1876,-233 1876,-667 1876,-667 1876,-667 1876,-713.73 1857.09,-727.57 1820,-756 1780.51,-786.28 1723.58,-799.39 1686.2,-804.99"/>
<polygon fill="black" stroke="black" points="1685.73,-801.52 1676.3,-806.34 1686.68,-808.45 1685.73,-801.52"/>
</g>
<!-- pv -->
<g id="node21" class="node">
<title>pv</title>
<ellipse fill="none" stroke="red" cx="1612" cy="-378" rx="27" ry="18"/>
<text text-anchor="middle" x="1612" y="-374.3" font-family="Times,serif" font-size="14.00">pv</text>
</g>
<!-- qm&#45;&gt;pv -->
<g id="edge71" class="edge">
<title>qm&#45;&gt;pv</title>
<path fill="none" stroke="black" d="M1629.34,-797.02C1597.96,-775.25 1538,-725.94 1538,-667 1538,-667 1538,-667 1538,-521 1538,-475 1568.92,-429.13 1590.79,-402.45"/>
<polygon fill="black" stroke="black" points="1593.31,-404.89 1597.1,-395 1587.97,-400.36 1593.31,-404.89"/>
</g>
<!-- nx -->
<g id="node38" class="node">
<title>nx</title>
<ellipse fill="none" stroke="red" cx="1707" cy="-738" rx="27" ry="18"/>
<text text-anchor="middle" x="1707" y="-734.3" font-family="Times,serif" font-size="14.00">nx</text>
</g>
<!-- qm&#45;&gt;nx -->
<g id="edge72" class="edge">
<title>qm&#45;&gt;nx</title>
<path fill="none" stroke="black" d="M1660.8,-793.81C1668.46,-784.73 1678.35,-773 1687.01,-762.72"/>
<polygon fill="black" stroke="black" points="1689.48,-765.22 1693.25,-755.32 1684.13,-760.71 1689.48,-765.22"/>
</g>
<!-- lc -->
<g id="node42" class="node">
<title>lc</title>
<ellipse fill="none" stroke="red" cx="1631" cy="-522" rx="27" ry="18"/>
<text text-anchor="middle" x="1631" y="-518.3" font-family="Times,serif" font-size="14.00">lc</text>
</g>
<!-- qm&#45;&gt;lc -->
<g id="edge70" class="edge">
<title>qm&#45;&gt;lc</title>
<path fill="none" stroke="black" d="M1646.96,-791.54C1644.12,-743.76 1636.2,-610.51 1632.7,-551.61"/>
<polygon fill="black" stroke="black" points="1636.2,-551.52 1632.11,-541.74 1629.21,-551.93 1636.2,-551.52"/>
</g>
<!-- fb -->
<g id="node46" class="node">
<title>fb</title>
<ellipse fill="none" stroke="red" cx="1643" cy="-954" rx="27" ry="18"/>
<text text-anchor="middle" x="1643" y="-950.3" font-family="Times,serif" font-size="14.00">fb</text>
</g>
<!-- qm&#45;&gt;fb -->
<g id="edge73" class="edge">
<title>qm&#45;&gt;fb</title>
<path fill="none" stroke="black" d="M1651.99,-828.19C1653.66,-852.1 1652.44,-895.72 1649.53,-924.53"/>
<polygon fill="black" stroke="black" points="1646.07,-924.03 1648.37,-934.37 1653.02,-924.85 1646.07,-924.03"/>
</g>
<!-- kk -->
<g id="node54" class="node">
<title>kk</title>
<ellipse fill="none" stroke="green" cx="1090" cy="-738" rx="27" ry="18"/>
<text text-anchor="middle" x="1090" y="-734.3" font-family="Times,serif" font-size="14.00">kk</text>
</g>
<!-- qm&#45;&gt;kk -->
<g id="edge74" class="edge">
<title>qm&#45;&gt;kk</title>
<path fill="none" stroke="black" d="M1621.19,-805.91C1552.89,-797.99 1366.81,-776.19 1212,-756 1183.57,-752.29 1151.46,-747.81 1127.32,-744.37"/>
<polygon fill="black" stroke="black" points="1128.05,-740.94 1117.66,-742.99 1127.06,-747.87 1128.05,-740.94"/>
</g>
<!-- kx -->
<g id="node16" class="node">
<title>kx</title>
<ellipse fill="none" stroke="red" cx="1169" cy="-90" rx="27" ry="18"/>
<text text-anchor="middle" x="1169" y="-86.3" font-family="Times,serif" font-size="14.00">kx</text>
</g>
<!-- nf -->
<g id="node17" class="node">
<title>nf</title>
<ellipse fill="none" stroke="green" cx="1248" cy="-738" rx="27" ry="18"/>
<text text-anchor="middle" x="1248" y="-734.3" font-family="Times,serif" font-size="14.00">nf</text>
</g>
<!-- kx&#45;&gt;nf -->
<g id="edge14" class="edge">
<title>kx&#45;&gt;nf</title>
<path fill="none" stroke="black" d="M1160.32,-107.09C1147.25,-132.88 1124,-185.42 1124,-233 1124,-595 1124,-595 1124,-595 1124,-651.84 1181.07,-696.91 1217.78,-720.02"/>
<polygon fill="black" stroke="black" points="1215.87,-722.96 1226.23,-725.17 1219.5,-716.98 1215.87,-722.96"/>
</g>
<!-- nf&#45;&gt;vt -->
<g id="edge89" class="edge">
<title>nf&#45;&gt;vt</title>
<path fill="none" stroke="black" d="M1224.98,-728.37C1197.52,-718.03 1150.28,-700.08 1110,-684 1107.37,-682.95 1104.65,-681.85 1101.92,-680.74"/>
<polygon fill="black" stroke="black" points="1103.49,-677.6 1092.91,-677.04 1100.83,-684.08 1103.49,-677.6"/>
</g>
<!-- zm -->
<g id="node29" class="node">
<title>zm</title>
<ellipse fill="none" stroke="red" cx="1246" cy="-378" rx="27" ry="18"/>
<text text-anchor="middle" x="1246" y="-374.3" font-family="Times,serif" font-size="14.00">zm</text>
</g>
<!-- nf&#45;&gt;zm -->
<g id="edge85" class="edge">
<title>nf&#45;&gt;zm</title>
<path fill="none" stroke="black" d="M1238.75,-720.98C1224.8,-695.29 1200,-642.88 1200,-595 1200,-595 1200,-595 1200,-521 1200,-478.91 1218.52,-433.06 1232.06,-405.17"/>
<polygon fill="black" stroke="black" points="1235.09,-406.92 1236.45,-396.42 1228.84,-403.78 1235.09,-406.92"/>
</g>
<!-- ch -->
<g id="node36" class="node">
<title>ch</title>
<ellipse fill="none" stroke="red" cx="1331" cy="-666" rx="27" ry="18"/>
<text text-anchor="middle" x="1331" y="-662.3" font-family="Times,serif" font-size="14.00">ch</text>
</g>
<!-- nf&#45;&gt;ch -->
<g id="edge87" class="edge">
<title>nf&#45;&gt;ch</title>
<path fill="none" stroke="black" d="M1264.4,-723.17C1276.22,-713.2 1292.4,-699.56 1305.85,-688.21"/>
<polygon fill="black" stroke="black" points="1308.09,-690.9 1313.48,-681.78 1303.58,-685.55 1308.09,-690.9"/>
</g>
<!-- dl -->
<g id="node45" class="node">
<title>dl</title>
<ellipse fill="none" stroke="red" cx="1211" cy="-954" rx="27" ry="18"/>
<text text-anchor="middle" x="1211" y="-950.3" font-family="Times,serif" font-size="14.00">dl</text>
</g>
<!-- nf&#45;&gt;dl -->
<g id="edge86" class="edge">
<title>nf&#45;&gt;dl</title>
<path fill="none" stroke="black" d="M1248.9,-756.31C1246.01,-793.32 1231.23,-880.43 1220.51,-925.27"/>
<polygon fill="black" stroke="black" points="1217.17,-924.19 1218.12,-934.74 1223.96,-925.9 1217.17,-924.19"/>
</g>
<!-- xf -->
<g id="node56" class="node">
<title>xf</title>
<ellipse fill="none" stroke="red" cx="1293" cy="-594" rx="27" ry="18"/>
<text text-anchor="middle" x="1293" y="-590.3" font-family="Times,serif" font-size="14.00">xf</text>
</g>
<!-- nf&#45;&gt;xf -->
<g id="edge88" class="edge">
<title>nf&#45;&gt;xf</title>
<path fill="none" stroke="black" d="M1253.43,-719.87C1261.07,-695.75 1275.09,-651.52 1284.22,-622.69"/>
<polygon fill="black" stroke="black" points="1287.55,-623.78 1287.24,-613.19 1280.88,-621.67 1287.55,-623.78"/>
</g>
<!-- st -->
<g id="node18" class="node">
<title>st</title>
<ellipse fill="none" stroke="red" cx="245" cy="-450" rx="27" ry="18"/>
<text text-anchor="middle" x="245" y="-446.3" font-family="Times,serif" font-size="14.00">st</text>
</g>
<!-- st&#45;&gt;pm -->
<g id="edge15" class="edge">
<title>st&#45;&gt;pm</title>
<path fill="none" stroke="black" d="M243.98,-468.23C241.15,-515.74 233.23,-648.97 229.72,-708.1"/>
<polygon fill="black" stroke="black" points="226.23,-707.84 229.13,-718.03 233.21,-708.25 226.23,-707.84"/>
</g>
<!-- st&#45;&gt;zc -->
<g id="edge16" class="edge">
<title>st&#45;&gt;zc</title>
<path fill="none" stroke="black" d="M236.19,-432.76C231.73,-424.55 226.2,-414.37 221.16,-405.09"/>
<polygon fill="black" stroke="black" points="224.33,-403.6 216.49,-396.48 218.18,-406.94 224.33,-403.6"/>
</g>
<!-- zc&#45;&gt;tb -->
<g id="edge60" class="edge">
<title>zc&#45;&gt;tb</title>
<path fill="none" stroke="black" d="M202.4,-360.05C200.35,-352.49 197.87,-343.37 195.56,-334.85"/>
<polygon fill="black" stroke="black" points="198.95,-333.98 192.95,-325.25 192.2,-335.82 198.95,-333.98"/>
</g>
<!-- bh -->
<g id="node20" class="node">
<title>bh</title>
<ellipse fill="none" stroke="red" cx="1612" cy="-450" rx="27" ry="18"/>
<text text-anchor="middle" x="1612" y="-446.3" font-family="Times,serif" font-size="14.00">bh</text>
</g>
<!-- bh&#45;&gt;qm -->
<g id="edge17" class="edge">
<title>bh&#45;&gt;qm</title>
<path fill="none" stroke="black" d="M1604.89,-467.7C1594.4,-493.89 1576,-546.46 1576,-593 1576,-667 1576,-667 1576,-667 1576,-712.74 1606.09,-758.68 1627.36,-785.45"/>
<polygon fill="black" stroke="black" points="1624.44,-787.42 1633.5,-792.92 1629.85,-782.97 1624.44,-787.42"/>
</g>
<!-- bh&#45;&gt;pv -->
<g id="edge18" class="edge">
<title>bh&#45;&gt;pv</title>
<path fill="none" stroke="black" d="M1612,-431.7C1612,-424.41 1612,-415.73 1612,-407.54"/>
<polygon fill="black" stroke="black" points="1615.5,-407.62 1612,-397.62 1608.5,-407.62 1615.5,-407.62"/>
</g>
<!-- vv -->
<g id="node31" class="node">
<title>vv</title>
<ellipse fill="none" stroke="red" cx="1783" cy="-306" rx="27" ry="18"/>
<text text-anchor="middle" x="1783" y="-302.3" font-family="Times,serif" font-size="14.00">vv</text>
</g>
<!-- pv&#45;&gt;vv -->
<g id="edge30" class="edge">
<title>pv&#45;&gt;vv</title>
<path fill="none" stroke="black" d="M1634.71,-367.7C1664.22,-355.62 1715.98,-334.44 1749.87,-320.56"/>
<polygon fill="black" stroke="black" points="1750.87,-323.93 1758.8,-316.91 1748.22,-317.46 1750.87,-323.93"/>
</g>
<!-- sk&#45;&gt;tj -->
<g id="edge19" class="edge">
<title>sk&#45;&gt;tj</title>
<path fill="none" stroke="black" d="M935.98,-650.83C946.24,-641.13 960.06,-628.06 971.74,-617"/>
<polygon fill="black" stroke="black" points="973.83,-619.84 978.69,-610.42 969.02,-614.75 973.83,-619.84"/>
</g>
<!-- hl -->
<g id="node23" class="node">
<title>hl</title>
<ellipse fill="none" stroke="red" cx="1213" cy="-234" rx="27" ry="18"/>
<text text-anchor="middle" x="1213" y="-230.3" font-family="Times,serif" font-size="14.00">hl</text>
</g>
<!-- hl&#45;&gt;nf -->
<g id="edge20" class="edge">
<title>hl&#45;&gt;nf</title>
<path fill="none" stroke="black" d="M1203.17,-250.94C1188.35,-276.53 1162,-328.8 1162,-377 1162,-595 1162,-595 1162,-595 1162,-643.16 1198.65,-688.96 1224.09,-714.95"/>
<polygon fill="black" stroke="black" points="1221.57,-717.38 1231.15,-721.92 1226.49,-712.4 1221.57,-717.38"/>
</g>
<!-- pn -->
<g id="node24" class="node">
<title>pn</title>
<ellipse fill="none" stroke="red" cx="1213" cy="-162" rx="27" ry="18"/>
<text text-anchor="middle" x="1213" y="-158.3" font-family="Times,serif" font-size="14.00">pn</text>
</g>
<!-- hl&#45;&gt;pn -->
<g id="edge21" class="edge">
<title>hl&#45;&gt;pn</title>
<path fill="none" stroke="black" d="M1213,-215.7C1213,-208.41 1213,-199.73 1213,-191.54"/>
<polygon fill="black" stroke="black" points="1216.5,-191.62 1213,-181.62 1209.5,-191.62 1216.5,-191.62"/>
</g>
<!-- pn&#45;&gt;kx -->
<g id="edge97" class="edge">
<title>pn&#45;&gt;kx</title>
<path fill="none" stroke="black" d="M1203.02,-145.12C1197.67,-136.61 1190.96,-125.94 1184.92,-116.32"/>
<polygon fill="black" stroke="black" points="1188.04,-114.71 1179.75,-108.1 1182.11,-118.43 1188.04,-114.71"/>
</g>
<!-- pn&#45;&gt;nf -->
<g id="edge96" class="edge">
<title>pn&#45;&gt;nf</title>
<path fill="none" stroke="black" d="M1239.65,-165.63C1303.88,-173.59 1462,-203.48 1462,-305 1462,-595 1462,-595 1462,-595 1462,-639.94 1448.59,-655.3 1414,-684 1377.13,-714.59 1322.35,-727.62 1285.93,-733.1"/>
<polygon fill="black" stroke="black" points="1285.73,-729.6 1276.3,-734.43 1286.68,-736.53 1285.73,-729.6"/>
</g>
<!-- mt -->
<g id="node25" class="node">
<title>mt</title>
<ellipse fill="none" stroke="red" cx="283" cy="-522" rx="27" ry="18"/>
<text text-anchor="middle" x="283" y="-518.3" font-family="Times,serif" font-size="14.00">mt</text>
</g>
<!-- mt&#45;&gt;pm -->
<g id="edge23" class="edge">
<title>mt&#45;&gt;pm</title>
<path fill="none" stroke="black" d="M278.74,-539.93C271.34,-569.29 255.62,-631.51 242,-684 239.91,-692.05 237.62,-700.77 235.51,-708.78"/>
<polygon fill="black" stroke="black" points="232.14,-707.8 232.97,-718.36 238.91,-709.59 232.14,-707.8"/>
</g>
<!-- mt&#45;&gt;st -->
<g id="edge22" class="edge">
<title>mt&#45;&gt;st</title>
<path fill="none" stroke="black" d="M274.19,-504.76C269.73,-496.55 264.2,-486.37 259.16,-477.09"/>
<polygon fill="black" stroke="black" points="262.33,-475.6 254.49,-468.48 256.18,-478.94 262.33,-475.6"/>
</g>
<!-- sg -->
<g id="node34" class="node">
<title>sg</title>
<ellipse fill="none" stroke="red" cx="678" cy="-450" rx="27" ry="18"/>
<text text-anchor="middle" x="678" y="-446.3" font-family="Times,serif" font-size="14.00">sg</text>
</g>
<!-- ts&#45;&gt;sg -->
<g id="edge35" class="edge">
<title>ts&#45;&gt;sg</title>
<path fill="none" stroke="black" d="M633.37,-505.81C640.69,-496.82 650.13,-485.23 658.43,-475.03"/>
<polygon fill="black" stroke="black" points="661.1,-477.3 664.7,-467.33 655.67,-472.88 661.1,-477.3"/>
</g>
<!-- gb -->
<g id="node52" class="node">
<title>gb</title>
<ellipse fill="none" stroke="red" cx="640" cy="-666" rx="27" ry="18"/>
<text text-anchor="middle" x="640" y="-662.3" font-family="Times,serif" font-size="14.00">gb</text>
</g>
<!-- dc&#45;&gt;gb -->
<g id="edge63" class="edge">
<title>dc&#45;&gt;gb</title>
<path fill="none" stroke="black" d="M640,-719.7C640,-712.41 640,-703.73 640,-695.54"/>
<polygon fill="black" stroke="black" points="643.5,-695.62 640,-685.62 636.5,-695.62 643.5,-695.62"/>
</g>
<!-- xc&#45;&gt;tj -->
<g id="edge33" class="edge">
<title>xc&#45;&gt;tj</title>
<path fill="none" stroke="black" d="M952.69,-791.85C960.59,-755.07 979.25,-668.29 988.93,-623.24"/>
<polygon fill="black" stroke="black" points="992.3,-624.22 990.98,-613.71 985.45,-622.75 992.3,-624.22"/>
</g>
<!-- hm -->
<g id="node30" class="node">
<title>hm</title>
<ellipse fill="none" stroke="red" cx="1246" cy="-306" rx="27" ry="18"/>
<text text-anchor="middle" x="1246" y="-302.3" font-family="Times,serif" font-size="14.00">hm</text>
</g>
<!-- zm&#45;&gt;hm -->
<g id="edge29" class="edge">
<title>zm&#45;&gt;hm</title>
<path fill="none" stroke="black" d="M1246,-359.7C1246,-352.41 1246,-343.73 1246,-335.54"/>
<polygon fill="black" stroke="black" points="1249.5,-335.62 1246,-325.62 1242.5,-335.62 1249.5,-335.62"/>
</g>
<!-- hm&#45;&gt;nf -->
<g id="edge67" class="edge">
<title>hm&#45;&gt;nf</title>
<path fill="none" stroke="black" d="M1270.75,-313.98C1319.66,-329.44 1424,-371.52 1424,-449 1424,-595 1424,-595 1424,-595 1424,-637.84 1417.74,-654.16 1387,-684 1359.23,-710.96 1316.34,-724.52 1285.55,-731.12"/>
<polygon fill="black" stroke="black" points="1285.01,-727.66 1275.88,-733.04 1286.37,-734.53 1285.01,-727.66"/>
</g>
<!-- hm&#45;&gt;hl -->
<g id="edge68" class="edge">
<title>hm&#45;&gt;hl</title>
<path fill="none" stroke="black" d="M1238.18,-288.41C1234.44,-280.48 1229.87,-270.78 1225.65,-261.84"/>
<polygon fill="black" stroke="black" points="1228.84,-260.39 1221.41,-252.84 1222.51,-263.38 1228.84,-260.39"/>
</g>
<!-- vv&#45;&gt;qm -->
<g id="edge59" class="edge">
<title>vv&#45;&gt;qm</title>
<path fill="none" stroke="black" d="M1786.36,-323.97C1791.31,-350.52 1800,-403.56 1800,-449 1800,-667 1800,-667 1800,-667 1800,-710.19 1791.14,-725.07 1761,-756 1739.98,-777.57 1708.47,-791.34 1684.07,-799.42"/>
<polygon fill="black" stroke="black" points="1683.03,-796.08 1674.52,-802.39 1685.11,-802.76 1683.03,-796.08"/>
</g>
<!-- sm -->
<g id="node49" class="node">
<title>sm</title>
<ellipse fill="none" stroke="red" cx="1802" cy="-234" rx="27" ry="18"/>
<text text-anchor="middle" x="1802" y="-230.3" font-family="Times,serif" font-size="14.00">sm</text>
</g>
<!-- vv&#45;&gt;sm -->
<g id="edge58" class="edge">
<title>vv&#45;&gt;sm</title>
<path fill="none" stroke="black" d="M1787.6,-288.05C1789.65,-280.49 1792.13,-271.37 1794.44,-262.85"/>
<polygon fill="black" stroke="black" points="1797.8,-263.82 1797.05,-253.25 1791.05,-261.98 1797.8,-263.82"/>
</g>
<!-- zf -->
<g id="node32" class="node">
<title>zf</title>
<ellipse fill="none" stroke="red" cx="1274" cy="-522" rx="27" ry="18"/>
<text text-anchor="middle" x="1274" y="-518.3" font-family="Times,serif" font-size="14.00">zf</text>
</g>
<!-- zf&#45;&gt;nf -->
<g id="edge31" class="edge">
<title>zf&#45;&gt;nf</title>
<path fill="none" stroke="black" d="M1267.36,-539.9C1263.64,-550.17 1259.29,-563.65 1257,-576 1248.5,-621.89 1247.26,-676.28 1247.42,-708.65"/>
<polygon fill="black" stroke="black" points="1243.92,-708.43 1247.52,-718.4 1250.92,-708.36 1243.92,-708.43"/>
</g>
<!-- cz -->
<g id="node33" class="node">
<title>cz</title>
<ellipse fill="none" stroke="red" cx="1274" cy="-450" rx="27" ry="18"/>
<text text-anchor="middle" x="1274" y="-446.3" font-family="Times,serif" font-size="14.00">cz</text>
</g>
<!-- zf&#45;&gt;cz -->
<g id="edge32" class="edge">
<title>zf&#45;&gt;cz</title>
<path fill="none" stroke="black" d="M1274,-503.7C1274,-496.41 1274,-487.73 1274,-479.54"/>
<polygon fill="black" stroke="black" points="1277.5,-479.62 1274,-469.62 1270.5,-479.62 1277.5,-479.62"/>
</g>
<!-- cz&#45;&gt;nf -->
<g id="edge64" class="edge">
<title>cz&#45;&gt;nf</title>
<path fill="none" stroke="black" d="M1288.58,-465.3C1325.43,-503.22 1415.98,-608.57 1367,-684 1349.08,-711.59 1313.11,-724.94 1285.38,-731.32"/>
<polygon fill="black" stroke="black" points="1285.02,-727.82 1275.94,-733.28 1286.44,-734.68 1285.02,-727.82"/>
</g>
<!-- cz&#45;&gt;zm -->
<g id="edge65" class="edge">
<title>cz&#45;&gt;zm</title>
<path fill="none" stroke="black" d="M1267.36,-432.41C1264.23,-424.57 1260.4,-414.99 1256.85,-406.13"/>
<polygon fill="black" stroke="black" points="1260.11,-404.86 1253.15,-396.88 1253.61,-407.46 1260.11,-404.86"/>
</g>
<!-- sg&#45;&gt;jd -->
<g id="edge53" class="edge">
<title>sg&#45;&gt;jd</title>
<path fill="none" stroke="black" d="M691.92,-465.84C713.35,-490.32 752,-541.57 752,-593 752,-739 752,-739 752,-739 752,-781.18 733.08,-827 719.25,-854.87"/>
<polygon fill="black" stroke="black" points="716.21,-853.12 714.75,-863.61 722.43,-856.32 716.21,-853.12"/>
</g>
<!-- mh -->
<g id="node41" class="node">
<title>mh</title>
<ellipse fill="none" stroke="red" cx="678" cy="-378" rx="27" ry="18"/>
<text text-anchor="middle" x="678" y="-374.3" font-family="Times,serif" font-size="14.00">mh</text>
</g>
<!-- sg&#45;&gt;mh -->
<g id="edge52" class="edge">
<title>sg&#45;&gt;mh</title>
<path fill="none" stroke="black" d="M678,-431.7C678,-424.41 678,-415.73 678,-407.54"/>
<polygon fill="black" stroke="black" points="681.5,-407.62 678,-397.62 674.5,-407.62 681.5,-407.62"/>
</g>
<!-- ht -->
<g id="node35" class="node">
<title>ht</title>
<ellipse fill="none" stroke="red" cx="1313" cy="-810" rx="27" ry="18"/>
<text text-anchor="middle" x="1313" y="-806.3" font-family="Times,serif" font-size="14.00">ht</text>
</g>
<!-- ht&#45;&gt;nf -->
<g id="edge37" class="edge">
<title>ht&#45;&gt;nf</title>
<path fill="none" stroke="black" d="M1299.22,-794.15C1290.6,-784.87 1279.32,-772.73 1269.54,-762.19"/>
<polygon fill="black" stroke="black" points="1272.16,-759.88 1262.79,-754.93 1267.03,-764.64 1272.16,-759.88"/>
</g>
<!-- ht&#45;&gt;ch -->
<g id="edge36" class="edge">
<title>ht&#45;&gt;ch</title>
<path fill="none" stroke="black" d="M1315.21,-791.59C1318.25,-767.61 1323.76,-724.14 1327.4,-695.42"/>
<polygon fill="black" stroke="black" points="1330.86,-695.97 1328.64,-685.61 1323.91,-695.09 1330.86,-695.97"/>
</g>
<!-- ch&#45;&gt;xf -->
<g id="edge100" class="edge">
<title>ch&#45;&gt;xf</title>
<path fill="none" stroke="black" d="M1322.19,-648.76C1317.73,-640.55 1312.2,-630.37 1307.16,-621.09"/>
<polygon fill="black" stroke="black" points="1310.33,-619.6 1302.49,-612.48 1304.18,-622.94 1310.33,-619.6"/>
</g>
<!-- pb -->
<g id="node37" class="node">
<title>pb</title>
<ellipse fill="none" stroke="red" cx="564" cy="-306" rx="27" ry="18"/>
<text text-anchor="middle" x="564" y="-302.3" font-family="Times,serif" font-size="14.00">pb</text>
</g>
<!-- pb&#45;&gt;rv -->
<g id="edge38" class="edge">
<title>pb&#45;&gt;rv</title>
<path fill="none" stroke="black" d="M564,-287.7C564,-280.41 564,-271.73 564,-263.54"/>
<polygon fill="black" stroke="black" points="567.5,-263.62 564,-253.62 560.5,-263.62 567.5,-263.62"/>
</g>
<!-- pb&#45;&gt;jd -->
<g id="edge39" class="edge">
<title>pb&#45;&gt;jd</title>
<path fill="none" stroke="black" d="M550.08,-321.84C528.65,-346.32 490,-397.57 490,-449 490,-739 490,-739 490,-739 490,-782.93 499.68,-799.37 533,-828 571.02,-860.66 628.92,-873.2 666.86,-878.01"/>
<polygon fill="black" stroke="black" points="666.12,-881.45 676.45,-879.1 666.91,-874.49 666.12,-881.45"/>
</g>
<!-- fc -->
<g id="node39" class="node">
<title>fc</title>
<ellipse fill="none" stroke="red" cx="1688" cy="-666" rx="27" ry="18"/>
<text text-anchor="middle" x="1688" y="-662.3" font-family="Times,serif" font-size="14.00">fc</text>
</g>
<!-- nx&#45;&gt;fc -->
<g id="edge40" class="edge">
<title>nx&#45;&gt;fc</title>
<path fill="none" stroke="black" d="M1702.4,-720.05C1700.35,-712.49 1697.87,-703.37 1695.56,-694.85"/>
<polygon fill="black" stroke="black" points="1698.95,-693.98 1692.95,-685.25 1692.2,-695.82 1698.95,-693.98"/>
</g>
<!-- fc&#45;&gt;qm -->
<g id="edge99" class="edge">
<title>fc&#45;&gt;qm</title>
<path fill="none" stroke="black" d="M1682.39,-683.63C1678.95,-694.04 1674.55,-707.75 1671,-720 1665.13,-740.28 1659.19,-763.36 1654.81,-780.93"/>
<polygon fill="black" stroke="black" points="1651.48,-779.84 1652.48,-790.39 1658.27,-781.52 1651.48,-779.84"/>
</g>
<!-- xb -->
<g id="node59" class="node">
<title>xb</title>
<ellipse fill="none" stroke="red" cx="1688" cy="-594" rx="27" ry="18"/>
<text text-anchor="middle" x="1688" y="-590.3" font-family="Times,serif" font-size="14.00">xb</text>
</g>
<!-- fc&#45;&gt;xb -->
<g id="edge98" class="edge">
<title>fc&#45;&gt;xb</title>
<path fill="none" stroke="black" d="M1688,-647.7C1688,-640.41 1688,-631.73 1688,-623.54"/>
<polygon fill="black" stroke="black" points="1691.5,-623.62 1688,-613.62 1684.5,-623.62 1691.5,-623.62"/>
</g>
<!-- mb&#45;&gt;mt -->
<g id="edge41" class="edge">
<title>mb&#45;&gt;mt</title>
<path fill="none" stroke="black" d="M312.19,-576.76C307.73,-568.55 302.2,-558.37 297.16,-549.09"/>
<polygon fill="black" stroke="black" points="300.33,-547.6 292.49,-540.48 294.18,-550.94 300.33,-547.6"/>
</g>
<!-- mh&#45;&gt;jd -->
<g id="edge42" class="edge">
<title>mh&#45;&gt;jd</title>
<path fill="none" stroke="black" d="M697.25,-391.07C729.28,-412.8 790,-461.81 790,-521 790,-739 790,-739 790,-739 790,-787.01 753.78,-832.85 728.63,-858.89"/>
<polygon fill="black" stroke="black" points="726.25,-856.32 721.66,-865.87 731.2,-861.27 726.25,-856.32"/>
</g>
<!-- mh&#45;&gt;pb -->
<g id="edge43" class="edge">
<title>mh&#45;&gt;pb</title>
<path fill="none" stroke="black" d="M658.66,-365.13C640.73,-354.11 613.79,-337.57 593.23,-324.95"/>
<polygon fill="black" stroke="black" points="595.08,-321.97 584.72,-319.72 591.41,-327.94 595.08,-321.97"/>
</g>
<!-- lc&#45;&gt;bh -->
<g id="edge44" class="edge">
<title>lc&#45;&gt;bh</title>
<path fill="none" stroke="black" d="M1626.4,-504.05C1624.35,-496.49 1621.87,-487.37 1619.56,-478.85"/>
<polygon fill="black" stroke="black" points="1622.95,-477.98 1616.95,-469.25 1616.2,-479.82 1622.95,-477.98"/>
</g>
<!-- xg&#45;&gt;pm -->
<g id="edge46" class="edge">
<title>xg&#45;&gt;pm</title>
<path fill="none" stroke="black" d="M340.75,-679.6C319.98,-691.66 286.03,-709.85 260.71,-722.51"/>
<polygon fill="black" stroke="black" points="259.24,-719.33 251.81,-726.89 262.33,-725.61 259.24,-719.33"/>
</g>
<!-- xg&#45;&gt;mb -->
<g id="edge45" class="edge">
<title>xg&#45;&gt;mb</title>
<path fill="none" stroke="black" d="M350.19,-648.76C345.73,-640.55 340.2,-630.37 335.16,-621.09"/>
<polygon fill="black" stroke="black" points="338.33,-619.6 330.49,-612.48 332.18,-622.94 338.33,-619.6"/>
</g>
<!-- broadcaster -->
<g id="node44" class="node">
<title>broadcaster</title>
<polygon fill="blue" stroke="blue" points="1009,-1044 907,-1044 907,-1008 1009,-1008 1009,-1044"/>
<text text-anchor="middle" x="958" y="-1022.3" font-family="Times,serif" font-size="14.00">broadcaster</text>
</g>
<!-- broadcaster&#45;&gt;gh -->
<g id="edge48" class="edge">
<title>broadcaster&#45;&gt;gh</title>
<path fill="none" stroke="black" d="M906.8,-1010.83C857.36,-997.16 783.8,-976.8 740.48,-964.82"/>
<polygon fill="black" stroke="black" points="741.67,-961.51 731.1,-962.22 739.8,-968.26 741.67,-961.51"/>
</g>
<!-- broadcaster&#45;&gt;xg -->
<g id="edge50" class="edge">
<title>broadcaster&#45;&gt;xg</title>
<path fill="none" stroke="black" d="M906.57,-1023.16C766.22,-1016.74 387,-989.56 387,-883 387,-883 387,-883 387,-809 387,-768.59 375.95,-722.9 367.73,-694.52"/>
<polygon fill="black" stroke="black" points="371.19,-693.86 364.97,-685.29 364.48,-695.87 371.19,-693.86"/>
</g>
<!-- broadcaster&#45;&gt;dl -->
<g id="edge49" class="edge">
<title>broadcaster&#45;&gt;dl</title>
<path fill="none" stroke="black" d="M1009.2,-1010.83C1058.64,-997.16 1132.2,-976.8 1175.52,-964.82"/>
<polygon fill="black" stroke="black" points="1176.2,-968.26 1184.9,-962.22 1174.33,-961.51 1176.2,-968.26"/>
</g>
<!-- broadcaster&#45;&gt;fb -->
<g id="edge51" class="edge">
<title>broadcaster&#45;&gt;fb</title>
<path fill="none" stroke="black" d="M1009.49,-1019.74C1141.41,-1006.26 1489.29,-970.71 1604.98,-958.89"/>
<polygon fill="black" stroke="black" points="1605.27,-962.37 1614.86,-957.88 1604.56,-955.41 1605.27,-962.37"/>
</g>
<!-- dl&#45;&gt;nf -->
<g id="edge56" class="edge">
<title>dl&#45;&gt;nf</title>
<path fill="none" stroke="black" d="M1210.09,-935.85C1212.95,-898.88 1227.79,-811.43 1238.53,-766.58"/>
<polygon fill="black" stroke="black" points="1241.86,-767.66 1240.92,-757.11 1235.08,-765.94 1241.86,-767.66"/>
</g>
<!-- sv -->
<g id="node48" class="node">
<title>sv</title>
<ellipse fill="none" stroke="red" cx="1275" cy="-882" rx="27" ry="18"/>
<text text-anchor="middle" x="1275" y="-878.3" font-family="Times,serif" font-size="14.00">sv</text>
</g>
<!-- dl&#45;&gt;sv -->
<g id="edge57" class="edge">
<title>dl&#45;&gt;sv</title>
<path fill="none" stroke="black" d="M1224.57,-938.15C1233.06,-928.87 1244.17,-916.73 1253.8,-906.19"/>
<polygon fill="black" stroke="black" points="1256.26,-908.68 1260.43,-898.94 1251.09,-903.96 1256.26,-908.68"/>
</g>
<!-- fb&#45;&gt;qm -->
<g id="edge83" class="edge">
<title>fb&#45;&gt;qm</title>
<path fill="none" stroke="black" d="M1639.02,-935.87C1637.33,-911.86 1638.57,-867.91 1641.51,-839.08"/>
<polygon fill="black" stroke="black" points="1644.97,-839.6 1642.69,-829.25 1638.02,-838.76 1644.97,-839.6"/>
</g>
<!-- dr -->
<g id="node58" class="node">
<title>dr</title>
<ellipse fill="none" stroke="red" cx="1707" cy="-882" rx="27" ry="18"/>
<text text-anchor="middle" x="1707" y="-878.3" font-family="Times,serif" font-size="14.00">dr</text>
</g>
<!-- fb&#45;&gt;dr -->
<g id="edge82" class="edge">
<title>fb&#45;&gt;dr</title>
<path fill="none" stroke="black" d="M1656.57,-938.15C1665.06,-928.87 1676.17,-916.73 1685.8,-906.19"/>
<polygon fill="black" stroke="black" points="1688.26,-908.68 1692.43,-898.94 1683.09,-903.96 1688.26,-908.68"/>
</g>
<!-- qq -->
<g id="node47" class="node">
<title>qq</title>
<ellipse fill="none" stroke="red" cx="621" cy="-594" rx="27" ry="18"/>
<text text-anchor="middle" x="621" y="-590.3" font-family="Times,serif" font-size="14.00">qq</text>
</g>
<!-- qq&#45;&gt;jd -->
<g id="edge55" class="edge">
<title>qq&#45;&gt;jd</title>
<path fill="none" stroke="black" d="M611.51,-611.28C589.34,-651.62 539.42,-758.04 585,-828 603.08,-855.76 639.36,-869.08 667.32,-875.41"/>
<polygon fill="black" stroke="black" points="666.35,-878.79 676.84,-877.35 667.74,-871.93 666.35,-878.79"/>
</g>
<!-- qq&#45;&gt;ts -->
<g id="edge54" class="edge">
<title>qq&#45;&gt;ts</title>
<path fill="none" stroke="black" d="M621,-575.7C621,-568.41 621,-559.73 621,-551.54"/>
<polygon fill="black" stroke="black" points="624.5,-551.62 621,-541.62 617.5,-551.62 624.5,-551.62"/>
</g>
<!-- sv&#45;&gt;nf -->
<g id="edge104" class="edge">
<title>sv&#45;&gt;nf</title>
<path fill="none" stroke="black" d="M1271.74,-863.87C1267.18,-839.88 1258.84,-795.99 1253.35,-767.16"/>
<polygon fill="black" stroke="black" points="1256.86,-766.85 1251.55,-757.68 1249.98,-768.15 1256.86,-766.85"/>
</g>
<!-- sv&#45;&gt;ht -->
<g id="edge105" class="edge">
<title>sv&#45;&gt;ht</title>
<path fill="none" stroke="black" d="M1283.81,-864.76C1288.27,-856.55 1293.8,-846.37 1298.84,-837.09"/>
<polygon fill="black" stroke="black" points="1301.82,-838.94 1303.51,-828.48 1295.67,-835.6 1301.82,-838.94"/>
</g>
<!-- sm&#45;&gt;hh -->
<g id="edge81" class="edge">
<title>sm&#45;&gt;hh</title>
<path fill="none" stroke="black" d="M1802,-215.7C1802,-208.41 1802,-199.73 1802,-191.54"/>
<polygon fill="black" stroke="black" points="1805.5,-191.62 1802,-181.62 1798.5,-191.62 1805.5,-191.62"/>
</g>
<!-- sm&#45;&gt;qm -->
<g id="edge80" class="edge">
<title>sm&#45;&gt;qm</title>
<path fill="none" stroke="black" d="M1809.11,-251.7C1819.6,-277.89 1838,-330.46 1838,-377 1838,-667 1838,-667 1838,-667 1838,-712.15 1823.14,-726.45 1789,-756 1759.37,-781.65 1716.11,-795.43 1685.34,-802.45"/>
<polygon fill="black" stroke="black" points="1684.74,-799 1675.69,-804.5 1686.2,-805.85 1684.74,-799"/>
</g>
<!-- lg -->
<g id="node57" class="node">
<title>lg</title>
<ellipse fill="none" stroke="red" cx="188" cy="-234" rx="27" ry="18"/>
<text text-anchor="middle" x="188" y="-230.3" font-family="Times,serif" font-size="14.00">lg</text>
</g>
<!-- tb&#45;&gt;lg -->
<g id="edge79" class="edge">
<title>tb&#45;&gt;lg</title>
<path fill="none" stroke="black" d="M188,-287.7C188,-280.41 188,-271.73 188,-263.54"/>
<polygon fill="black" stroke="black" points="191.5,-263.62 188,-253.62 184.5,-263.62 191.5,-263.62"/>
</g>
<!-- sr -->
<g id="node51" class="node">
<title>sr</title>
<ellipse fill="none" stroke="red" cx="93" cy="-90" rx="27" ry="18"/>
<text text-anchor="middle" x="93" y="-86.3" font-family="Times,serif" font-size="14.00">sr</text>
</g>
<!-- sr&#45;&gt;pm -->
<g id="edge62" class="edge">
<title>sr&#45;&gt;pm</title>
<path fill="none" stroke="black" d="M89.64,-107.97C84.69,-134.52 76,-187.56 76,-233 76,-595 76,-595 76,-595 76,-640.59 94.17,-652.37 127,-684 146.06,-702.37 172.76,-716.01 193.92,-724.85"/>
<polygon fill="black" stroke="black" points="192.42,-728.02 203.01,-728.47 195.02,-721.51 192.42,-728.02"/>
</g>
<!-- sr&#45;&gt;zv -->
<g id="edge61" class="edge">
<title>sr&#45;&gt;zv</title>
<path fill="none" stroke="black" d="M80.79,-73.46C73.89,-64.67 65.09,-53.48 57.27,-43.53"/>
<polygon fill="black" stroke="black" points="60.04,-41.38 51.11,-35.68 54.53,-45.71 60.04,-41.38"/>
</g>
<!-- gb&#45;&gt;jd -->
<g id="edge77" class="edge">
<title>gb&#45;&gt;jd</title>
<path fill="none" stroke="black" d="M652.9,-682.24C660.77,-692.33 670.37,-706.2 676,-720 693.98,-764.07 700.85,-819.44 703.45,-852.42"/>
<polygon fill="black" stroke="black" points="699.95,-852.66 704.14,-862.39 706.94,-852.17 699.95,-852.66"/>
</g>
<!-- gb&#45;&gt;qq -->
<g id="edge76" class="edge">
<title>gb&#45;&gt;qq</title>
<path fill="none" stroke="black" d="M635.4,-648.05C633.35,-640.49 630.87,-631.37 628.56,-622.85"/>
<polygon fill="black" stroke="black" points="631.95,-621.98 625.95,-613.25 625.2,-623.82 631.95,-621.98"/>
</g>
<!-- gd&#45;&gt;sr -->
<g id="edge69" class="edge">
<title>gd&#45;&gt;sr</title>
<path fill="none" stroke="black" d="M122.19,-144.76C117.73,-136.55 112.2,-126.37 107.16,-117.09"/>
<polygon fill="black" stroke="black" points="110.33,-115.6 102.49,-108.48 104.18,-118.94 110.33,-115.6"/>
</g>
<!-- kk&#45;&gt;tj -->
<g id="edge101" class="edge">
<title>kk&#45;&gt;tj</title>
<path fill="none" stroke="black" d="M1072.46,-723.96C1060.13,-714.08 1043.96,-699.59 1033,-684 1019.86,-665.31 1009.96,-641.36 1003.56,-623.01"/>
<polygon fill="black" stroke="black" points="1006.9,-621.97 1000.43,-613.58 1000.26,-624.17 1006.9,-621.97"/>
</g>
<!-- xf&#45;&gt;zf -->
<g id="edge78" class="edge">
<title>xf&#45;&gt;zf</title>
<path fill="none" stroke="black" d="M1288.4,-576.05C1286.35,-568.49 1283.87,-559.37 1281.56,-550.85"/>
<polygon fill="black" stroke="black" points="1284.95,-549.98 1278.95,-541.25 1278.2,-551.82 1284.95,-549.98"/>
</g>
<!-- lg&#45;&gt;pm -->
<g id="edge102" class="edge">
<title>lg&#45;&gt;pm</title>
<path fill="none" stroke="black" d="M214.37,-238.87C273.98,-249.27 414,-283.63 414,-377 414,-595 414,-595 414,-595 414,-635.45 422.18,-654.05 395,-684 362.12,-720.24 304.62,-731.86 266.43,-735.49"/>
<polygon fill="black" stroke="black" points="266.44,-731.98 256.75,-736.26 267,-738.96 266.44,-731.98"/>
</g>
<!-- lg&#45;&gt;gd -->
<g id="edge103" class="edge">
<title>lg&#45;&gt;gd</title>
<path fill="none" stroke="black" d="M175.63,-217.81C168.31,-208.82 158.87,-197.23 150.57,-187.03"/>
<polygon fill="black" stroke="black" points="153.33,-184.88 144.3,-179.33 147.9,-189.3 153.33,-184.88"/>
</g>
<!-- dr&#45;&gt;qm -->
<g id="edge109" class="edge">
<title>dr&#45;&gt;qm</title>
<path fill="none" stroke="black" d="M1694.2,-865.81C1686.54,-856.73 1676.65,-845 1667.99,-834.72"/>
<polygon fill="black" stroke="black" points="1670.87,-832.71 1661.75,-827.32 1665.52,-837.22 1670.87,-832.71"/>
</g>
<!-- dr&#45;&gt;nx -->
<g id="edge108" class="edge">
<title>dr&#45;&gt;nx</title>
<path fill="none" stroke="black" d="M1707,-863.59C1707,-839.61 1707,-796.14 1707,-767.42"/>
<polygon fill="black" stroke="black" points="1710.5,-767.62 1707,-757.62 1703.5,-767.62 1710.5,-767.62"/>
</g>
<!-- xb&#45;&gt;qm -->
<g id="edge106" class="edge">
<title>xb&#45;&gt;qm</title>
<path fill="none" stroke="black" d="M1701.22,-610.06C1725.47,-639.61 1772.02,-706.59 1743,-756 1730.21,-777.77 1704.87,-791.26 1683.58,-799.18"/>
<polygon fill="black" stroke="black" points="1682.66,-795.79 1674.33,-802.33 1684.92,-802.42 1682.66,-795.79"/>
</g>
<!-- xb&#45;&gt;lc -->
<g id="edge107" class="edge">
<title>xb&#45;&gt;lc</title>
<path fill="none" stroke="black" d="M1675.63,-577.81C1668.31,-568.82 1658.87,-557.23 1650.57,-547.03"/>
<polygon fill="black" stroke="black" points="1653.33,-544.88 1644.3,-539.33 1647.9,-549.3 1653.33,-544.88"/>
</g>
</g>
</svg>
